#N canvas 270 348 747 594 10;
#X obj 169 138 dac~;
#X obj 126 43 osc~ 440;
#X obj 181 100 *~;
#X obj 220 63 hsl 128 15 0 1 0 0 empty empty empty -2 -8 0 10 -262144
-1 -1 0 1;
#X floatatom 253 -90 3 0 0 0 - - -;
#X floatatom 223 -91 3 0 0 0 - - -;
#X obj 223 -116 ctlin;
#X obj 265 -42 bng 20 250 50 0 empty empty empty 17 7 0 10 -262144
-1 -1;
#X floatatom 253 -90 3 0 0 0 - - -;
#X floatatom 244 33 5 0 0 0 - - -;
#X obj 249 -8 / 127;
#X msg 351 -112 20;
#X msg 351 -112 20;
#X msg 395 -76 20;
#X msg 394 -111 0;
#X obj 456 -38 line;
#X floatatom 456 -9 5 0 0 0 - - -;
#X msg 446 -91 1 1000;
#X msg 455 -123 0 1000;
#X obj 505 -154 metro 500;
#X obj 570 -155 metro 600;
#X text 425 -185 comment;
#X obj 520 -195 bng 15 250 50 0 empty empty empty 17 7 0 10 -262144
-1 -1;
#X msg 574 -202 stop;
#X connect 1 0 2 0;
#X connect 2 0 0 0;
#X connect 2 0 0 1;
#X connect 3 0 2 1;
#X connect 5 0 10 0;
#X connect 6 0 5 0;
#X connect 6 1 4 0;
#X connect 9 0 3 0;
#X connect 10 0 9 0;
#X connect 11 0 10 0;
#X connect 14 0 10 0;
#X connect 15 0 16 0;
#X connect 16 0 3 0;
#X connect 17 0 15 0;
#X connect 18 0 15 0;
#X connect 19 0 18 0;
#X connect 20 0 17 0;
#X connect 22 0 19 0;
#X connect 22 0 20 0;
#X connect 23 0 19 0;
#X connect 23 0 20 0;
