#N canvas 34 83 1388 745 10;
#X obj 0 306 dac~;
#X obj 12 268 *~;
#X obj 51 204 hsl 128 15 0 1 0 0 empty empty empty -2 -8 0 10 -262144
-1 -1 2100 1;
#X floatatom 253 -115 3 0 0 0 - - -;
#X floatatom 223 -91 3 0 0 0 - - -;
#X obj 265 -42 bng 20 250 50 0 empty empty empty 17 7 0 10 -262144
-1 -1;
#X floatatom 244 33 5 0 0 0 - - -;
#X obj 249 -8 / 127;
#X msg 351 -112 20;
#X msg 351 -112 20;
#X msg 395 -76 20;
#X msg 394 -111 0;
#X obj 456 -38 line;
#X floatatom 449 18 5 0 0 0 - - -;
#X msg 446 -91 1 1000;
#X msg 455 -123 0 1000;
#X obj 505 -154 metro 500;
#X obj 570 -155 metro 600;
#X text 425 -185 comment;
#X obj 520 -195 bng 15 250 50 0 empty empty empty 17 7 0 10 -262144
-1 -1;
#X msg 574 -202 stop;
#N canvas 0 22 450 278 (subpatch) 0;
#X array scope 100 float 3;
#A 0 0.883675 1.13782 0.391959 0.646101 0.900244 1.15439 1.40853 1.66267
0.916812 1.17095 0.425097 0.679239 0.933381 1.18752 1.44167 0.695808
0.94995 1.20409 0.458235 0.712377 0.966519 1.22066 1.4748 0.728946
0.983088 1.23723 0.491373 0.745515 0.999657 1.2538 1.50794 0.762084
1.01623 1.27037 0.52451 0.778653 1.03279 1.28694 1.54108 0.795221 1.04936
1.30351 0.557648 0.81179 1.06593 1.32007 1.57422 0.828359 1.0825 1.33664
0.590786 0.844928 1.09907 1.35321 1.60735 0.861497 1.11564 0.369781
0.623924 0.878066 1.13221 1.38635 0.640493 0.894635 1.14878 0.402919
0.657062 0.911204 1.16535 1.41949 0.67363 0.927773 1.18191 0.436057
0.690199 0.944342 1.19848 1.45263 0.706768 0.96091 1.21505 0.469195
0.723337 0.977479 1.23162 1.48576 0.739906 0.994048 1.24819 0.502333
0.756475 1.01062 1.26476 1.5189 0.773044 1.02719 1.28133 0.53547 0.789613
1.04375;
#X coords 0 1 99 -1 200 140 1 0 0;
#X restore 437 178 graph;
#X obj 57 338 tabwrite~ scope;
#X obj 86 270 tgl 15 0 empty empty empty 17 7 0 10 -262144 -1 -1 1
1;
#X obj 388 -38 line~;
#X obj -81 100 phasor~;
#X obj -162 100 phasor~;
#X floatatom -124 -121 3 0 0 0 - - -;
#X floatatom 939 133 3 0 0 0 - - -;
#X obj -153 -204 ctlin 14;
#X floatatom -43 -82 3 0 0 0 - - -;
#X floatatom -73 -58 3 0 0 0 - - -;
#X obj -105 -111 ctlin 15;
#X obj 28 43 osc~;
#X floatatom 22 -42 3 0 0 0 - - -;
#X floatatom -22 -26 3 0 0 0 - - -;
#X obj -39 -111 ctlin 16;
#X obj -19 14 mtof;
#X obj 80 302 metro 50;
#X floatatom 123 272 5 0 0 0 - - -;
#X obj -142 14 mtof;
#X obj -96 13 mtof;
#X obj -125 -17 + 0.1;
#X obj 854 -95 hradio 15 1 0 8 empty empty empty 0 -8 0 10 -262144
-1 -1 3;
#X text 853 -115 simple sequencer;
#X obj 854 -198 + 1;
#X msg 854 -302 bang;
#X obj 854 -224 float;
#X obj 854 -276 trigger bang bang;
#X msg 968 -244 0;
#X text 891 -303 <--- click here to start;
#X msg 782 -336 0;
#X text 704 -179;
#X obj 779 -288 bng 15 250 50 0 empty empty empty 17 7 0 10 -262144
-1 -1;
#X obj 815 -27 select 1 2 3 4 5 6 7 8;
#X floatatom 710 40 3 0 0 0 - - -;
#X floatatom 751 37 3 0 0 0 - - -;
#X floatatom 806 38 3 0 0 0 - - -;
#X floatatom 859 36 3 0 0 0 - - -;
#X floatatom 914 37 3 0 0 0 - - -;
#X floatatom 966 36 3 0 0 0 - - -;
#X floatatom 1021 37 3 0 0 0 - - -;
#X floatatom 1074 36 3 0 0 0 - - -;
#X obj 191 -144 ctlin;
#X obj 697 7 ctlin 2;
#X obj 751 5 ctlin 3;
#X obj 806 5 ctlin 4;
#X obj 859 4 ctlin 5;
#X obj 914 4 ctlin 6;
#X obj 966 4 ctlin 8;
#X obj 1021 4 ctlin 9;
#X obj 1074 4 ctlin 12;
#X obj 854 -250 metro 500;
#X obj 782 -363 select 8;
#X connect 1 0 0 0;
#X connect 1 0 0 1;
#X connect 1 0 22 0;
#X connect 2 0 1 1;
#X connect 4 0 7 0;
#X connect 6 0 2 0;
#X connect 7 0 6 0;
#X connect 8 0 7 0;
#X connect 11 0 7 0;
#X connect 12 0 13 0;
#X connect 14 0 12 0;
#X connect 14 0 24 0;
#X connect 15 0 12 0;
#X connect 15 0 24 0;
#X connect 16 0 15 0;
#X connect 17 0 14 0;
#X connect 19 0 16 0;
#X connect 19 0 17 0;
#X connect 20 0 16 0;
#X connect 20 0 17 0;
#X connect 23 0 38 0;
#X connect 24 0 1 1;
#X connect 25 0 1 0;
#X connect 26 0 1 0;
#X connect 28 0 40 0;
#X connect 28 0 42 0;
#X connect 29 0 28 0;
#X connect 29 1 27 0;
#X connect 32 0 31 0;
#X connect 32 1 30 0;
#X connect 35 0 37 0;
#X connect 36 0 35 0;
#X connect 36 1 34 0;
#X connect 37 0 33 0;
#X connect 38 0 22 0;
#X connect 39 0 38 1;
#X connect 40 0 26 0;
#X connect 41 0 25 0;
#X connect 42 0 41 0;
#X connect 43 0 54 0;
#X connect 45 0 47 1;
#X connect 45 0 43 0;
#X connect 45 0 73 0;
#X connect 46 0 48 0;
#X connect 47 0 45 0;
#X connect 48 0 72 0;
#X connect 48 1 49 0;
#X connect 49 0 47 1;
#X connect 51 0 47 1;
#X connect 51 0 53 0;
#X connect 51 0 72 0;
#X connect 53 0 46 0;
#X connect 54 0 55 0;
#X connect 54 1 56 0;
#X connect 54 2 57 0;
#X connect 54 3 58 0;
#X connect 54 4 59 0;
#X connect 54 5 60 0;
#X connect 54 6 61 0;
#X connect 54 7 62 0;
#X connect 55 0 28 0;
#X connect 56 0 28 0;
#X connect 57 0 28 0;
#X connect 58 0 28 0;
#X connect 59 0 28 0;
#X connect 60 0 28 0;
#X connect 61 0 28 0;
#X connect 62 0 28 0;
#X connect 63 0 4 0;
#X connect 63 1 3 0;
#X connect 64 0 55 0;
#X connect 65 0 56 0;
#X connect 66 0 57 0;
#X connect 67 0 58 0;
#X connect 68 0 59 0;
#X connect 69 0 60 0;
#X connect 70 0 61 0;
#X connect 71 0 62 0;
#X connect 72 0 47 0;
#X connect 73 0 51 0;
#X connect 73 0 46 0;
