#N canvas 334 279 450 300 10;
#X obj 10 14 tgl 15 0 empty empty empty 17 7 0 10 -262144 -1 -1 1 1
;
#X obj 10 45 metro;
#X obj 9 65 float 0;
#X obj 9 88 + 1;
#X floatatom 9 112 5 0 0 0 - - -;
#X floatatom 29 15 5 0 0 0 - - -;
#X msg 64 13 0;
#X obj 9 132 % 8;
#X floatatom 9 154 5 0 0 0 - - -;
#X connect 0 0 1 0;
#X connect 1 0 2 0;
#X connect 2 0 3 0;
#X connect 3 0 4 0;
#X connect 3 0 2 1;
#X connect 4 0 7 0;
#X connect 5 0 1 1;
#X connect 6 0 2 1;
#X connect 7 0 8 0;
