#N canvas 30 179 1345 676 10;
#X obj 179 221 tgl 15 0 empty empty empty 17 7 0 10 -262144 -1 -1 1
1;
#X obj 10 45 metro;
#X obj 9 65 float 0;
#X obj 9 88 + 1;
#X floatatom 9 112 5 0 0 0 - - -;
#X floatatom 175 203 5 0 0 0 - - -;
#X msg 64 13 0;
#X obj 9 132 % 8;
#X floatatom 9 154 5 0 0 0 - - -;
#X obj 25 172 sel 0 1 2 3 4 5 6 7;
#X obj 15 234 vsl 15 128 0 127 0 0 empty empty empty 0 -9 0 10 -262144
-1 -1 0 1;
#X obj 35 234 vsl 15 128 0 127 0 0 empty empty empty 0 -9 0 10 -262144
-1 -1 0 1;
#X obj 55 234 vsl 15 128 0 127 0 0 empty empty empty 0 -9 0 10 -262144
-1 -1 0 1;
#X obj 74 235 vsl 15 128 0 127 0 0 empty empty empty 0 -9 0 10 -262144
-1 -1 0 1;
#X obj 95 234 vsl 15 128 0 127 0 0 empty empty empty 0 -9 0 10 -262144
-1 -1 0 1;
#X obj 115 235 vsl 15 128 0 127 0 0 empty empty empty 0 -9 0 10 -262144
-1 -1 0 1;
#X obj 135 235 vsl 15 128 0 127 0 0 empty empty empty 0 -9 0 10 -262144
-1 -1 0 1;
#X obj 154 235 vsl 15 128 0 127 0 0 empty empty empty 0 -9 0 10 -262144
-1 -1 0 1;
#X obj 13 210 hradio 20 1 0 8 empty empty empty 0 -8 0 10 -262144 -1
-1 4;
#X obj 13 376 outlet;
#X obj 28 402 outlet;
#X obj 58 376 outlet;
#X obj 73 402 outlet;
#X obj 102 376 outlet;
#X obj 117 402 outlet;
#X obj 146 376 outlet;
#X obj 161 402 outlet;
#X obj 25 -34 inlet;
#X obj 148 33 ctlin 2;
#X obj 202 31 ctlin 3;
#X obj 257 31 ctlin 4;
#X obj 310 30 ctlin 5;
#X obj 365 30 ctlin 6;
#X obj 417 30 ctlin 8;
#X obj 472 30 ctlin 9;
#X obj 525 30 ctlin 12;
#X obj 196 -63 loadbang;
#X msg 196 -39 500;
#X connect 0 0 1 0;
#X connect 1 0 2 0;
#X connect 2 0 3 0;
#X connect 3 0 4 0;
#X connect 3 0 2 1;
#X connect 4 0 7 0;
#X connect 5 0 1 1;
#X connect 6 0 2 1;
#X connect 7 0 8 0;
#X connect 8 0 9 0;
#X connect 8 0 18 0;
#X connect 9 0 10 0;
#X connect 9 1 11 0;
#X connect 9 2 12 0;
#X connect 9 3 13 0;
#X connect 9 4 14 0;
#X connect 9 5 15 0;
#X connect 9 6 16 0;
#X connect 9 7 17 0;
#X connect 10 0 19 0;
#X connect 11 0 20 0;
#X connect 12 0 21 0;
#X connect 13 0 22 0;
#X connect 14 0 23 0;
#X connect 15 0 24 0;
#X connect 16 0 25 0;
#X connect 17 0 26 0;
#X connect 28 0 10 0;
#X connect 29 0 11 0;
#X connect 30 0 12 0;
#X connect 31 0 13 0;
#X connect 32 0 14 0;
#X connect 33 0 15 0;
#X connect 34 0 16 0;
#X connect 35 0 17 0;
#X connect 36 0 37 0;
#X connect 36 0 0 0;
#X connect 37 0 1 1;
#X connect 37 0 5 0;
#X coords 0 -1 1 1 200 170 1 10 200;
