#N canvas 446 194 457 398 10;
#N canvas 0 22 450 278 (subpatch) 0;
#X array sound 1.5876e+06 float 2;
#X coords 0 1 1.5876e+06 -1 200 140 1;
#X restore 201 54 graph;
#X obj 20 200 tabread4~ sound;
#X obj 31 81 soundfiler;
#X msg 18 57 read -resize \$1 sound;
#X obj 18 31 openpanel;
#X msg 17 8 bang;
#X obj 31 291 dac~;
#N canvas 81 257 450 300 playphasor 1;
#X obj 30 68 t b;
#X obj 30 29 inlet;
#X obj 30 93 samplerate~;
#X obj 29 125 /;
#X obj 29 156 *;
#X obj 115 50 f;
#X obj 115 73 t b;
#X text 28 9 length;
#X obj 115 25 inlet;
#X text 113 7 slice;
#X text 184 6 speed;
#X obj 186 24 inlet;
#X obj 186 48 f;
#X obj 30 186 phasor~;
#X obj 186 72 t b f;
#X obj 30 242 outlet~;
#X text 29 262 signal outlet;
#X obj 122 243 outlet;
#X text 118 261 declick;
#X obj 30 216 *~;
#X connect 0 0 2 0;
#X connect 1 0 0 0;
#X connect 1 0 3 1;
#X connect 1 0 19 1;
#X connect 2 0 3 0;
#X connect 3 0 4 0;
#X connect 4 0 13 0;
#X connect 5 0 6 0;
#X connect 5 0 13 1;
#X connect 5 0 17 0;
#X connect 5 0 0 0;
#X connect 8 0 5 0;
#X connect 11 0 12 0;
#X connect 12 0 14 0;
#X connect 12 0 17 0;
#X connect 13 0 19 0;
#X connect 14 0 4 0;
#X connect 14 1 4 1;
#X connect 19 0 15 0;
#X restore 12 159 pd playphasor;
#X msg 50 132 0.1;
#X obj 132 246 hradio 15 1 0 8 empty empty empty 0 -8 0 10 -262144
-1 -1 4;
#X obj 142 287 nbx 5 14 -1e+37 1e+37 0 0 empty empty empty 0 -8 0 10
-262144 -1 -1 4 256;
#X obj 138 311 / 7;
#X text 259 238 try slicing with this (divides into 8 slices \; make
it 16 for an MPC!);
#X msg 92 132 1;
#X text 89 102 speed (neg == reverse);
#X text 119 202 you need two of these for stereo... ask to see that
patch;
#X text 65 10 bang to open a file dialog \, load a file from the hard
drive;
#X connect 1 0 6 0;
#X connect 1 0 6 1;
#X connect 2 0 7 0;
#X connect 3 0 2 0;
#X connect 4 0 3 0;
#X connect 5 0 4 0;
#X connect 7 0 1 0;
#X connect 8 0 7 1;
#X connect 9 0 10 0;
#X connect 9 0 11 0;
#X connect 11 0 7 1;
#X connect 13 0 7 2;
