#N canvas 682 105 685 689 10;
#X obj 123 217 list-dripslow;
#X obj 198 132 list prepend set;
#X msg 123 190 bang;
#X obj 198 246 t b b;
#X obj 171 101 t b l;
#X obj 171 73 r pattern;
#X msg 400 44 1 3 5;
#X obj 400 68 s pattern;
#X msg 198 184 1 3 5;
#X obj 198 157 list trim;
#X obj 123 344 * 500;
#X text 473 69 Rhythm vector;
#X obj 150 323 nbx 5 14 -1e+37 1e+37 0 0 empty empty empty 0 -8 0 10
-262144 -1 -1 83 256;
#X obj 150 301 r pulse;
#X text 7 75 Calculate rhythm vectors;
#X obj 85 372 delay;
#X text 387 276 To do: variants with different rhythm vectors?;
#X text 390 175 To do: work out how to sync external clock. This will
be either by changing the pulse and canceling delay by sending it a
bang \, or possibly manually sending metro commands \, or even manually
banging list?;
#X text 155 372 Right now \, delay also triggers next bang.;
#X text 428 552 To do: simple version for rhythmic generator? callback
to viz?;
#X obj 85 549 textfile;
#X text 152 548 Sequence events;
#X msg 51 341 stop;
#X text 473 89 sends and starts pattern;
#X obj 102 510 list trim;
#X obj 102 485 list prepend add;
#X obj 102 458 r sequence;
#X msg 248 464 clear;
#X obj 248 436 r clear;
#X obj 393 494 s sequence;
#X obj 85 591 print;
#X msg 140 575 rewind;
#X msg 393 456 a \, b \, c;
#X msg 466 458 d \, e \, f;
#X obj 296 313 + 1;
#X obj 261 312 int;
#X obj 261 334 nbx 5 14 -1e+37 1e+37 0 0 empty empty empty 0 -8 0 10
-262144 -1 -1 122 256;
#X obj 133 258 print;
#X text 46 180 sync go messages :);
#X connect 0 0 10 0;
#X connect 0 0 37 0;
#X connect 0 1 3 0;
#X connect 1 0 9 0;
#X connect 2 0 0 0;
#X connect 3 0 2 0;
#X connect 3 1 8 0;
#X connect 4 0 8 0;
#X connect 4 0 2 0;
#X connect 4 1 1 0;
#X connect 5 0 4 0;
#X connect 6 0 7 0;
#X connect 8 0 0 1;
#X connect 9 0 8 0;
#X connect 10 0 15 0;
#X connect 12 0 10 1;
#X connect 13 0 12 0;
#X connect 15 0 2 0;
#X connect 15 0 20 0;
#X connect 15 0 35 0;
#X connect 20 0 30 0;
#X connect 20 1 31 0;
#X connect 22 0 15 0;
#X connect 24 0 20 0;
#X connect 25 0 24 0;
#X connect 26 0 25 0;
#X connect 27 0 20 0;
#X connect 28 0 27 0;
#X connect 31 0 20 0;
#X connect 32 0 29 0;
#X connect 33 0 29 0;
#X connect 34 0 35 1;
#X connect 35 0 34 0;
#X connect 35 0 36 0;
